<svg width="28" height="26" viewBox="0 0 28 26" fill="none" xmlns="http://www.w3.org/2000/svg">
<path d="M26.7296 12.7949L14.6505 0.721677C14.4776 0.549929 14.2438 0.453537 14.0001 0.453537C13.7564 0.453537 13.5226 0.549929 13.3497 0.721677L1.27063 12.7949C1.09347 12.9714 0.953466 13.1816 0.858868 13.413C0.76427 13.6445 0.717 13.8925 0.719848 14.1426C0.731567 15.1738 1.58997 15.9971 2.62122 15.9971H3.86633V25.5391H24.1339V15.9971H25.4054C25.9064 15.9971 26.3781 15.8008 26.7326 15.4463C26.9071 15.2723 27.0454 15.0654 27.1394 14.8376C27.2335 14.6098 27.2814 14.3656 27.2804 14.1191C27.2804 13.6211 27.0841 13.1494 26.7296 12.7949ZM15.6408 23.4297H12.3595V17.4531H15.6408V23.4297ZM22.0245 13.8877V23.4297H17.5158V16.75C17.5158 16.1025 16.9913 15.5781 16.3439 15.5781H11.6564C11.0089 15.5781 10.4845 16.1025 10.4845 16.75V23.4297H5.97571V13.8877H3.16321L14.0031 3.05664L24.84 13.8877H22.0245Z" fill="#11142D"/>
</svg>
