<svg width="26" height="28" viewBox="0 0 26 28" fill="none" xmlns="http://www.w3.org/2000/svg">
<path d="M23.3124 14.7125V13.2781L25.1124 11.7031C25.4442 11.4107 25.662 11.0103 25.7272 10.5729C25.7924 10.1354 25.7008 9.68899 25.4687 9.3125L23.2562 5.5625C23.0918 5.27775 22.8554 5.04123 22.5707 4.87668C22.286 4.71213 21.9631 4.62534 21.6343 4.625C21.4305 4.62344 21.2279 4.6551 21.0343 4.71875L18.7562 5.4875C18.3629 5.22613 17.9526 4.99124 17.5281 4.78437L17.0499 2.42187C16.9642 1.99025 16.7294 1.60254 16.3866 1.3266C16.0438 1.05065 15.6149 0.904068 15.1749 0.9125H10.7874C10.3475 0.904068 9.91854 1.05065 9.57576 1.3266C9.23297 1.60254 8.99816 1.99025 8.91243 2.42187L8.43431 4.78437C8.00674 4.99119 7.59334 5.22608 7.19681 5.4875L4.96556 4.68125C4.7699 4.63027 4.56728 4.61128 4.36556 4.625C4.03675 4.62534 3.71382 4.71213 3.42915 4.87668C3.14448 5.04123 2.90808 5.27775 2.74368 5.5625L0.531182 9.3125C0.312357 9.68843 0.231043 10.1287 0.301165 10.558C0.371288 10.9873 0.588485 11.3789 0.915557 11.6656L2.68743 13.2875V14.7219L0.915557 16.2969C0.579246 16.5856 0.356109 16.9842 0.285743 17.4218C0.215377 17.8595 0.302334 18.3079 0.531182 18.6875L2.74368 22.4375C2.90808 22.7223 3.14448 22.9588 3.42915 23.1233C3.71382 23.2879 4.03675 23.3747 4.36556 23.375C4.56932 23.3766 4.77198 23.3449 4.96556 23.2812L7.24368 22.5125C7.637 22.7739 8.04728 23.0088 8.47181 23.2156L8.94993 25.5781C9.03566 26.0097 9.27047 26.3975 9.61326 26.6734C9.95604 26.9493 10.385 27.0959 10.8249 27.0875H15.2499C15.6899 27.0959 16.1188 26.9493 16.4616 26.6734C16.8044 26.3975 17.0392 26.0097 17.1249 25.5781L17.6031 23.2156C18.0306 23.0088 18.444 22.7739 18.8406 22.5125L21.1093 23.2812C21.3029 23.3449 21.5055 23.3766 21.7093 23.375C22.0381 23.3747 22.361 23.2879 22.6457 23.1233C22.9304 22.9588 23.1668 22.7223 23.3312 22.4375L25.4687 18.6875C25.6875 18.3116 25.7688 17.8713 25.6987 17.442C25.6286 17.0127 25.4114 16.6211 25.0843 16.3344L23.3124 14.7125ZM21.6343 21.5L18.4187 20.4125C17.6659 21.0501 16.8056 21.5485 15.8781 21.8844L15.2124 25.25H10.7874L10.1218 21.9219C9.20158 21.5765 8.34592 21.0789 7.59056 20.45L4.36556 21.5L2.15306 17.75L4.70306 15.5C4.52971 14.5296 4.52971 13.5361 4.70306 12.5656L2.15306 10.25L4.36556 6.5L7.58118 7.5875C8.33393 6.9499 9.19425 6.45149 10.1218 6.11562L10.7874 2.75H15.2124L15.8781 6.07812C16.7983 6.42352 17.6539 6.92107 18.4093 7.55L21.6343 6.5L23.8468 10.25L21.2968 12.5C21.4702 13.4704 21.4702 14.4639 21.2968 15.4344L23.8468 17.75L21.6343 21.5Z" fill="#11142D"/>
<path d="M12.9999 19.625C11.8874 19.625 10.7999 19.2951 9.87486 18.677C8.94983 18.0589 8.22886 17.1804 7.80312 16.1526C7.37737 15.1248 7.26598 13.9938 7.48302 12.9026C7.70006 11.8115 8.23579 10.8092 9.02246 10.0225C9.80913 9.23585 10.8114 8.70012 11.9026 8.48308C12.9937 8.26604 14.1247 8.37743 15.1525 8.80318C16.1804 9.22892 17.0589 9.94989 17.677 10.8749C18.295 11.7999 18.6249 12.8875 18.6249 14C18.6325 14.7408 18.4921 15.4756 18.2121 16.1615C17.9321 16.8473 17.518 17.4704 16.9942 17.9942C16.4703 18.5181 15.8473 18.9321 15.1614 19.2121C14.4755 19.4922 13.7407 19.6325 12.9999 19.625ZM12.9999 10.25C12.5043 10.2385 12.0115 10.3276 11.5513 10.5119C11.0911 10.6963 10.6731 10.9721 10.3226 11.3226C9.97203 11.6732 9.69623 12.0912 9.51187 12.5514C9.3275 13.0116 9.23839 13.5044 9.24994 14C9.23839 14.4956 9.3275 14.9884 9.51187 15.4486C9.69623 15.9088 9.97203 16.3268 10.3226 16.6774C10.6731 17.0279 11.0911 17.3037 11.5513 17.4881C12.0115 17.6724 12.5043 17.7615 12.9999 17.75C13.4956 17.7615 13.9884 17.6724 14.4485 17.4881C14.9087 17.3037 15.3267 17.0279 15.6773 16.6774C16.0278 16.3268 16.3036 15.9088 16.488 15.4486C16.6724 14.9884 16.7615 14.4956 16.7499 14C16.7615 13.5044 16.6724 13.0116 16.488 12.5514C16.3036 12.0912 16.0278 11.6732 15.6773 11.3226C15.3267 10.9721 14.9087 10.6963 14.4485 10.5119C13.9884 10.3276 13.4956 10.2385 12.9999 10.25Z" fill="#11142D"/>
</svg>
